<svg xmlns="http://www.w3.org/2000/svg" width="14.814" height="8.92" viewBox="0 0 14.814 8.92">
  <g id="Group_2605" data-name="Group 2605" transform="translate(625.708 -184.115)">
    <path id="Path_11683" data-name="Path 11683" d="M-625.1,184.115l.173.145,5.551,4.568a1.535,1.535,0,0,0,1.99.032c.527-.413,1.038-.845,1.556-1.27l4.052-3.332c.046-.038.091-.078.167-.142Zm-.15,8.92h13.726l-5.112-4.025a.743.743,0,0,0-.063.039l-.251.208a2.129,2.129,0,0,1-1.76.494,2.3,2.3,0,0,1-1.227-.644.2.2,0,0,0-.317-.014c-1.134.9-2.274,1.8-3.413,2.694Zm9.074-4.415,5.283,4.166V184.27Zm-9.531-4.255v8.282l5.14-4.053Z" transform="translate(0 0)" fill="#77b21e"/>
    <path id="Path_11684" data-name="Path 11684" d="M-608.087,184.115H-594.6c-.076.065-.12.1-.167.142l-4.052,3.332c-.517.425-1.029.858-1.556,1.27a1.535,1.535,0,0,1-1.991-.032l-5.551-4.568Z" transform="translate(-17.015 0)" fill="#77b21e"/>
    <path id="Path_11685" data-name="Path 11685" d="M-612.436,330.375l1.583-1.248c1.138-.9,2.279-1.791,3.413-2.694a.2.2,0,0,1,.317.014,2.3,2.3,0,0,0,1.227.644,2.129,2.129,0,0,0,1.76-.494l.251-.208a.732.732,0,0,1,.063-.039l5.112,4.025Z" transform="translate(-12.815 -137.34)" fill="#77b21e"/>
    <path id="Path_11686" data-name="Path 11686" d="M-348.747,192.981l5.283-4.349v8.515Z" transform="translate(-267.43 -4.362)" fill="#77b21e"/>
    <path id="Path_11687" data-name="Path 11687" d="M-625.708,191.366l5.14,4.229-5.14,4.053Z" transform="translate(0 -7.001)" fill="#77b21e"/>
  </g>
</svg>
