<svg xmlns="http://www.w3.org/2000/svg" width="16.033" height="15.035" viewBox="0 0 16.033 15.035">
  <g id="Group_2606" data-name="Group 2606" transform="translate(513.134 35.622)">
    <path id="Path_11734" data-name="Path 11734" d="M-510.125,96.481c0,.134,0,.247,0,.359q0,1.249,0,2.5c0,.149,0,.15.148.15L-501,99.5c.261,0,.522,0,.783,0,.093,0,.114-.03.114-.117,0-.916,0-1.832,0-2.748,0-.107.024-.145.137-.142.276.009.553,0,.829.005a2.138,2.138,0,0,1,2.034,2.073q0,2.424,0,4.849a2.133,2.133,0,0,1-2.066,2.087c-.306,0-.612,0-.93,0,0-.056-.007-.1-.007-.143q0-1.357,0-2.714c0-.15,0-.151-.147-.151l-9.016-.008c-.246,0-.492,0-.738,0-.1,0-.127.031-.127.129,0,.908,0,1.817,0,2.725,0,.15,0,.151-.147.15-.276,0-.553,0-.829,0a2.137,2.137,0,0,1-2.021-2.074c0-1.612.015-3.225,0-4.837a2.164,2.164,0,0,1,2.095-2.1C-510.741,96.49-510.442,96.481-510.125,96.481Z" transform="translate(0 -129.101)" fill="#77b21e"/>
    <path id="Path_11735" data-name="Path 11735" d="M-328.452-30.609h-.365q-3.752,0-7.5-.006c-.119,0-.143-.038-.143-.149q.01-2.356.011-4.712c0-.146,0-.146.151-.146l7.7.007c.161,0,.161,0,.161.16q0,2.344-.008,4.689C-328.453-30.719-328.452-30.671-328.452-30.609Z" transform="translate(-172.656)" fill="#77b21e"/>
    <path id="Path_11736" data-name="Path 11736" d="M-332.924,405.482h3.86c.147,0,.148,0,.147.15q0,2.356-.007,4.712c0,.117-.033.144-.147.143q-3.855-.008-7.709-.009c-.156,0-.156,0-.156-.153q0-2.356.006-4.712c0-.115.028-.145.144-.144,1.287,0,2.573,0,3.86,0Zm0,.992v-.005q-1.447,0-2.894,0c-.084,0-.122.016-.12.111q.008.391,0,.783c0,.1.032.123.124.12.17-.006.34,0,.511,0q2.628,0,5.255.007c.105,0,.137-.03.134-.134-.007-.242,0-.484,0-.726,0-.151,0-.152-.146-.152Zm-.01,3.007v0c.961,0,1.923,0,2.884,0,.1,0,.132-.025.13-.126-.006-.253,0-.507,0-.761,0-.094-.028-.122-.122-.122q-2.9,0-5.791-.005c-.083,0-.113.022-.111.108,0,.254.008.507,0,.761,0,.119.036.143.148.143C-334.838,409.479-333.885,409.481-332.931,409.481Z" transform="translate(-172.197 -431.075)" fill="#77b21e"/>
  </g>
</svg>
