<svg xmlns="http://www.w3.org/2000/svg" width="11.26" height="15.613" viewBox="0 0 11.26 15.613">
  <g id="Group_10881" data-name="Group 10881" transform="translate(0.15)">
    <path id="Path_11681" data-name="Path 11681" d="M2047.508,596.635l-.675-.926c-.837-1.151-1.684-2.3-2.444-3.5a20.245,20.245,0,0,1-1.675-3.177,4.6,4.6,0,0,1-.375-1.732,4.322,4.322,0,0,1,1.011-2.778,5.092,5.092,0,0,1,3.491-1.932,5.23,5.23,0,0,1,4.062,1.147,4.887,4.887,0,0,1,1.72,2.85,3.756,3.756,0,0,1-.22,2.148,22.336,22.336,0,0,1-2.2,4.137c-.83,1.273-1.733,2.494-2.645,3.708C2047.544,596.592,2047.533,596.6,2047.508,596.635Zm-2.385-9a2.392,2.392,0,1,0,2.4-2.392A2.394,2.394,0,0,0,2045.123,587.637Z" transform="translate(-2042.04 -582.548)" fill="#77b21e"/>
    <path id="Path_11682" data-name="Path 11682" d="M2034.387,1206.6c.175-.253.354-.493.511-.746a.322.322,0,0,1,.365-.175,10.034,10.034,0,0,1,2.564.578,1.627,1.627,0,0,1,.661.445.387.387,0,0,1,.04.506,1.206,1.206,0,0,1-.316.309,4.14,4.14,0,0,1-1.41.534,17.25,17.25,0,0,1-4.355.352,16.821,16.821,0,0,1-2.711-.292,5.363,5.363,0,0,1-1.551-.509,1.694,1.694,0,0,1-.368-.269.447.447,0,0,1,.016-.7,2.162,2.162,0,0,1,.764-.436,9.347,9.347,0,0,1,2.029-.469c.172-.022.344-.043.516-.059a.124.124,0,0,1,.1.03c.213.294.421.591.633.891-.15.053-.292.1-.433.154a.661.661,0,0,0-.152.081c-.141.1-.146.255.007.337a1.935,1.935,0,0,0,.507.2,6.165,6.165,0,0,0,2.687-.007,1.971,1.971,0,0,0,.446-.169c.173-.088.178-.217.032-.347a1.093,1.093,0,0,0-.469-.211Z" transform="translate(-2027.651 -1192.961)" fill="none" stroke="#fff" stroke-width="0.3"/>
  </g>
</svg>
