<svg xmlns="http://www.w3.org/2000/svg" width="14.01" height="14.079" viewBox="0 0 14.01 14.079">
  <g id="Group_10880" data-name="Group 10880" transform="translate(0 -1.16)">
    <path id="Path_11672" data-name="Path 11672" d="M2744.966,1797.1a12.048,12.048,0,0,1-6.772-2.653,11.88,11.88,0,0,1-4.207-5.335,10.246,10.246,0,0,1-.515-2.989,3.219,3.219,0,0,1,1.4-2.726,2.266,2.266,0,0,1,1.113-.368,1.043,1.043,0,0,1,1.185.852c.276.881.667,1.727.946,2.607a1.381,1.381,0,0,1-.132.825,1.474,1.474,0,0,1-.43.538,1.269,1.269,0,0,0-.215,1.786,8.361,8.361,0,0,0,4.476,3.9.641.641,0,0,0,.54-.129c.449-.393.876-.815,1.285-1.251a.5.5,0,0,1,.745-.077c.887.544,1.8,1.043,2.693,1.58a.792.792,0,0,1,.379.448,2.921,2.921,0,0,1-1.966,2.9A4.391,4.391,0,0,1,2744.966,1797.1Z" transform="translate(-2733.469 -1781.857)" fill="#77b21e"/>
  </g>
</svg>
