<svg xmlns="http://www.w3.org/2000/svg" xmlns:xlink="http://www.w3.org/1999/xlink" width="54.061" height="46.396" viewBox="0 0 54.061 46.396">
  <defs>
    <clipPath id="clip-path">
      <rect id="Rectangle_2911" data-name="Rectangle 2911" width="54.061" height="46.396" fill="#364b73"/>
    </clipPath>
  </defs>
  <g id="Group_11104" data-name="Group 11104" transform="translate(0)" opacity="0.22">
    <g id="Group_11025" data-name="Group 11025" transform="translate(0)" clip-path="url(#clip-path)">
      <path id="Path_13605" data-name="Path 13605" d="M481.236.083V.424c0,7.862.014,15.724-.012,23.586a36.329,36.329,0,0,1-.906,8.408,16.162,16.162,0,0,1-6.96,9.932,43.1,43.1,0,0,1-8.092,4.09c-.254.1-.316-.057-.416-.2l-5-7.345c-.145-.212-.287-.426-.458-.682.375-.114.714-.216,1.052-.32a26.188,26.188,0,0,0,5.547-2.274,9.471,9.471,0,0,0,4.538-6.039,28.408,28.408,0,0,0,.781-6.455.824.824,0,0,0-.029-.14H458.14V.083Z" transform="translate(-427.179 -0.077)" fill="#364b73"/>
      <path id="Path_13606" data-name="Path 13606" d="M1.27,38.131c.722-.225,1.43-.435,2.132-.667a22.148,22.148,0,0,0,4.684-2.07,9.475,9.475,0,0,0,4.324-6.005,29.026,29.026,0,0,0,.752-6.257,2.056,2.056,0,0,0-.02-.225H0V0H23.071c.007.113.02.221.02.329,0,7.806.013,15.612-.013,23.418a36.2,36.2,0,0,1-.944,8.64,16.525,16.525,0,0,1-7.5,10.22,45.535,45.535,0,0,1-7.514,3.746c-.159.064-.257.066-.364-.093q-2.709-4-5.428-7.992a.891.891,0,0,1-.06-.139" transform="translate(0 -0.001)" fill="#364b73"/>
    </g>
  </g>
</svg>
