<svg xmlns="http://www.w3.org/2000/svg" xmlns:xlink="http://www.w3.org/1999/xlink" width="54.061" height="46.396" viewBox="0 0 54.061 46.396">
  <defs>
    <clipPath id="clip-path">
      <rect id="Rectangle_2911" data-name="Rectangle 2911" width="54.061" height="46.395" fill="#364b73"/>
    </clipPath>
  </defs>
  <g id="Group_11103" data-name="Group 11103" opacity="0.22">
    <g id="Group_11025" data-name="Group 11025" clip-path="url(#clip-path)">
      <path id="Path_13605" data-name="Path 13605" d="M458.143.083V.424c0,7.862-.014,15.724.012,23.586a36.328,36.328,0,0,0,.906,8.408,16.162,16.162,0,0,0,6.96,9.932,43.1,43.1,0,0,0,8.092,4.09c.254.1.316-.057.416-.2l5-7.344c.145-.212.287-.426.458-.682-.375-.114-.714-.216-1.052-.32a26.188,26.188,0,0,1-5.547-2.274,9.471,9.471,0,0,1-4.538-6.039,28.407,28.407,0,0,1-.781-6.455.824.824,0,0,1,.029-.14h13.142V.083Z" transform="translate(-458.14 -0.077)" fill="#364b73"/>
      <path id="Path_13606" data-name="Path 13606" d="M21.823,38.131c-.722-.225-1.43-.435-2.132-.667a22.148,22.148,0,0,1-4.684-2.07,9.475,9.475,0,0,1-4.324-6.005,29.026,29.026,0,0,1-.752-6.257,2.056,2.056,0,0,1,.02-.225H23.093V0H.022C.015.114,0,.222,0,.33,0,8.136-.01,15.942.016,23.748a36.2,36.2,0,0,0,.944,8.64,16.525,16.525,0,0,0,7.5,10.22,45.535,45.535,0,0,0,7.514,3.746c.159.064.257.066.364-.093q2.709-4,5.428-7.992a.891.891,0,0,0,.06-.139" transform="translate(30.967 -0.001)" fill="#364b73"/>
    </g>
  </g>
</svg>
