<svg xmlns="http://www.w3.org/2000/svg" width="21.04" height="21.048" viewBox="0 0 21.04 21.048">
  <g id="ln" transform="translate(-178.885 -8.279)">
    <rect id="Rectangle_54" data-name="Rectangle 54" width="4.401" height="14.033" transform="translate(179.232 15.2)" fill="#36527e"/>
    <path id="Path_1210" data-name="Path 1210" d="M1846.56,146.454q-.249-.028-.51-.038a5.135,5.135,0,0,0-4.337,1.986,3.088,3.088,0,0,0-.191.275V146.8h-4.21v14.033h4.4V154.24a5.731,5.731,0,0,1,.4-2.834,2.147,2.147,0,0,1,1.958-1.1,2.333,2.333,0,0,1,2.488,2.408v8.18h4.4v-9.153c0-3.132-1.592-4.984-4.4-5.288" transform="translate(-1651.033 -131.567)" fill="#36527e"/>
    <path id="Path_1211" data-name="Path 1211" d="M1769.44,84.211a2.551,2.551,0,1,1-2.551-2.551,2.551,2.551,0,0,1,2.551,2.551" transform="translate(-1585.453 -73.381)" fill="#36527e"/>
  </g>
</svg>
