<svg xmlns="http://www.w3.org/2000/svg" xmlns:xlink="http://www.w3.org/1999/xlink" width="49.518" height="49.207" viewBox="0 0 49.518 49.207">
  <defs>
    <clipPath id="clip-path">
      <rect id="Rectangle_2943" data-name="Rectangle 2943" width="49.518" height="49.207" transform="translate(0 0)" fill="#00254d"/>
    </clipPath>
  </defs>
  <g id="Group_11121" data-name="Group 11121" transform="translate(0)">
    <g id="Group_11120" data-name="Group 11120" transform="translate(0 0)" clip-path="url(#clip-path)">
      <path id="Path_13725" data-name="Path 13725" d="M619.821,363.338a1.983,1.983,0,0,1-.728,2.765.369.369,0,0,0-.056.551c.7.648.6,2.446-.5,2.786-.206.064-.338.417-.17.553.874.705.574,3.2-2.123,3.2,0,0-2.279.041-2.278.039-3.348.006-7.71-.039-8.685-.041-1.023-.1-2.182-.253-2.621-.8-.8-.993-1-10.687.164-11.5l1.034-.984c8.8-9.7,2.436-10.653,5.716-10.931l0-.007c3.135.558,2.358,7.15,1.737,9.823a.466.466,0,0,0,.454.572l4.787,0-.01-.011c.373,0,1.482.051,1.8.051,2.3,0,2.778,2.209,1.56,3.354a.46.46,0,0,0-.08.572" transform="translate(-582.967 -337.937)" fill="#00254d"/>
      <path id="Path_13726" data-name="Path 13726" d="M383.681,734.428a43.537,43.537,0,0,1-.013-10.072.9.9,0,0,0-.83-1.1h-4.064a1.216,1.216,0,0,0-1.115,1.1,43.548,43.548,0,0,0,0,10.072,1.215,1.215,0,0,0,1.115,1.1h4.077a.9.9,0,0,0,.83-1.1m-1.851.017a.5.5,0,1,1,.5-.5.5.5,0,0,1-.5.5" transform="translate(-365.433 -700.386)" fill="#00254d"/>
      <path id="Path_13727" data-name="Path 13727" d="M720.528,0l.481,1.48h1.556l-1.259.915.481,1.48-1.259-.915-1.259.915.481-1.48-1.259-.915h1.556Z" transform="translate(-695.769 -0.003)" fill="#00254d"/>
      <path id="Path_13728" data-name="Path 13728" d="M521.109,27.964l.481,1.48h1.556l-1.259.915.481,1.48-1.259-.915-1.259.915.481-1.48-1.259-.915h1.556Z" transform="translate(-502.657 -27.08)" fill="#00254d"/>
      <path id="Path_13729" data-name="Path 13729" d="M343.16,106.649l.481,1.48H345.2l-1.259.915.481,1.48-1.259-.915-1.259.915.481-1.48-1.259-.915h1.556Z" transform="translate(-330.336 -103.276)" fill="#00254d"/>
      <path id="Path_13730" data-name="Path 13730" d="M194.482,228.255l.481,1.48h1.556l-1.259.915.481,1.48-1.259-.915-1.259.915.481-1.48-1.259-.915H194Z" transform="translate(-186.359 -221.037)" fill="#00254d"/>
      <path id="Path_13731" data-name="Path 13731" d="M82.875,384.983l.481,1.48h1.556l-1.259.915.481,1.48-1.259-.915-1.259.915.481-1.48-1.259-.915h1.556Z" transform="translate(-78.281 -372.808)" fill="#00254d"/>
      <path id="Path_13732" data-name="Path 13732" d="M16.14,569.031l.481,1.48h1.556l-1.259.915.481,1.48-1.259-.915-1.259.915.481-1.48L14.1,570.51h1.556Z" transform="translate(-13.657 -551.035)" fill="#00254d"/>
      <path id="Path_13733" data-name="Path 13733" d="M2.037,771.744l.481,1.48H4.074l-1.259.914.481,1.48L2.037,774.7l-1.259.915.481-1.48L0,773.224H1.556Z" transform="translate(0 -747.337)" fill="#00254d"/>
      <path id="Path_13734" data-name="Path 13734" d="M43.411,966.527l.481,1.48h1.556l-1.259.915.481,1.48-1.259-.914-1.259.914.481-1.48-1.259-.915H42.93Z" transform="translate(-40.065 -935.96)" fill="#00254d"/>
      <path id="Path_13735" data-name="Path 13735" d="M133.557,1137.89l.481,1.48h1.556l-1.259.915.481,1.48-1.259-.914-1.259.914.481-1.48-1.259-.915h1.556Z" transform="translate(-127.361 -1101.904)" fill="#00254d"/>
      <path id="Path_13736" data-name="Path 13736" d="M264.675,1278.031l.481,1.48h1.556l-1.259.915.481,1.48-1.259-.914-1.259.914.481-1.48-1.259-.915h1.556Z" transform="translate(-254.332 -1237.614)" fill="#00254d"/>
      <path id="Path_13737" data-name="Path 13737" d="M428.964,1379.152l.481,1.48H431l-1.259.915.481,1.48-1.259-.915-1.259.915.481-1.48-1.259-.915h1.556Z" transform="translate(-413.425 -1335.536)" fill="#00254d"/>
      <path id="Path_13738" data-name="Path 13738" d="M618.623,1433.45l.481,1.48h1.556l-1.259.914.481,1.48-1.259-.915-1.259.915.481-1.48-1.259-.914h1.556Z" transform="translate(-597.086 -1388.117)" fill="#00254d"/>
      <path id="Path_13739" data-name="Path 13739" d="M822.434,1433.45l.481,1.48h1.556l-1.259.914.481,1.48-1.259-.915-1.259.915.481-1.48-1.259-.914h1.556Z" transform="translate(-794.452 -1388.117)" fill="#00254d"/>
      <path id="Path_13740" data-name="Path 13740" d="M1012.093,1379.152l.481,1.48h1.556l-1.259.915.481,1.48-1.259-.915-1.259.915.481-1.48-1.259-.915h1.556Z" transform="translate(-978.113 -1335.536)" fill="#00254d"/>
      <path id="Path_13741" data-name="Path 13741" d="M1176.382,1278.031l.481,1.48h1.556l-1.259.915.481,1.48-1.259-.914-1.259.914.481-1.48-1.259-.915h1.556Z" transform="translate(-1137.207 -1237.614)" fill="#00254d"/>
      <path id="Path_13742" data-name="Path 13742" d="M1307.5,1137.89l.481,1.48h1.556l-1.259.915.481,1.48-1.259-.914-1.259.914.481-1.48-1.259-.915h1.556Z" transform="translate(-1264.178 -1101.904)" fill="#00254d"/>
      <path id="Path_13743" data-name="Path 13743" d="M1397.646,966.527l.481,1.48h1.556l-1.259.915.481,1.48-1.259-.914-1.259.914.481-1.48-1.259-.915h1.556Z" transform="translate(-1351.473 -935.96)" fill="#00254d"/>
      <path id="Path_13744" data-name="Path 13744" d="M1439.02,771.744l.481,1.48h1.556l-1.259.914.481,1.48-1.259-.915-1.259.915.481-1.48-1.259-.914h1.556Z" transform="translate(-1391.538 -747.337)" fill="#00254d"/>
      <path id="Path_13745" data-name="Path 13745" d="M1424.917,569.031l.481,1.48h1.556l-1.259.915.481,1.48-1.259-.915-1.259.915.481-1.48-1.259-.915h1.556Z" transform="translate(-1377.882 -551.035)" fill="#00254d"/>
      <path id="Path_13746" data-name="Path 13746" d="M1358.181,384.983l.481,1.48h1.556l-1.259.915.481,1.48-1.259-.915-1.259.915.481-1.48-1.259-.915h1.556Z" transform="translate(-1313.257 -372.808)" fill="#00254d"/>
      <path id="Path_13747" data-name="Path 13747" d="M1246.575,228.255l.481,1.48h1.556l-1.259.915.481,1.48-1.259-.915-1.259.915.481-1.48-1.259-.915h1.556Z" transform="translate(-1205.18 -221.037)" fill="#00254d"/>
      <path id="Path_13748" data-name="Path 13748" d="M1097.9,106.649l.481,1.48h1.556l-1.259.915.481,1.48-1.259-.915-1.259.915.481-1.48-1.259-.915h1.556Z" transform="translate(-1061.203 -103.276)" fill="#00254d"/>
      <path id="Path_13749" data-name="Path 13749" d="M919.947,27.964l.481,1.48h1.556l-1.259.915.481,1.48-1.259-.915-1.259.915.481-1.48-1.259-.915h1.556Z" transform="translate(-888.882 -27.08)" fill="#00254d"/>
      <path id="Path_13750" data-name="Path 13750" d="M720.528,0l.481,1.48h1.556l-1.259.915.481,1.48-1.259-.915-1.259.915.481-1.48-1.259-.915h1.556Z" transform="translate(-695.769 -0.003)" fill="#00254d"/>
    </g>
  </g>
</svg>
