<svg xmlns="http://www.w3.org/2000/svg" xmlns:xlink="http://www.w3.org/1999/xlink" width="49.519" height="47.071" viewBox="0 0 49.519 47.071">
  <defs>
    <clipPath id="clip-path">
      <rect id="Rectangle_2942" data-name="Rectangle 2942" width="49.519" height="47.071" fill="#00254d" stroke="#fff" stroke-width="1"/>
    </clipPath>
  </defs>
  <g id="Group_11119" data-name="Group 11119" transform="translate(0)">
    <g id="Group_11118" data-name="Group 11118" transform="translate(0)" clip-path="url(#clip-path)">
      <g id="Path_13721" data-name="Path 13721" transform="translate(-405.238 -190.588)" fill="#00254d">
        <path d="M 434.0889892578125 231.6920013427734 L 434.0889892578125 231.1886444091797 L 434.0889892578125 224.4872283935547 L 434.0889892578125 224.3298492431641 L 434.1791076660156 224.2008514404297 C 434.4831237792969 223.7657318115234 434.9838562011719 223.5261077880859 435.5890808105469 223.5261077880859 C 436.1993713378906 223.5261077880859 436.62841796875 223.7581634521484 437.0069580078125 223.9629058837891 C 437.1343078613281 224.0317993164062 437.2546081542969 224.0968627929688 437.381103515625 224.1538543701172 L 437.3856811523438 224.1559295654297 L 437.3902282714844 224.1580810546875 L 437.4029235839844 224.1641235351562 C 437.4136657714844 224.1692657470703 437.4243774414062 224.1744689941406 437.4349975585938 224.1791381835938 L 437.4352722167969 224.1785583496094 C 437.6834106445312 224.2860412597656 437.9457702636719 224.3405303955078 438.2151184082031 224.3405303955078 C 439.3568115234375 224.3405303955078 440.2856140136719 223.3558197021484 440.2856140136719 222.1454467773438 C 440.2856140136719 220.9347381591797 439.3568115234375 219.9497680664062 438.2151184082031 219.9497680664062 C 437.982421875 219.9497680664062 437.7539367675781 219.9907836914062 437.5345153808594 220.0718078613281 L 437.464111328125 220.1526336669922 L 437.3464050292969 220.1527862548828 C 437.232666015625 220.2058258056641 437.1230163574219 220.2651214599609 437.007568359375 220.3275756835938 C 436.6288757324219 220.5324096679688 436.1996459960938 220.7645874023438 435.5890808105469 220.7645874023438 C 434.9827575683594 220.7645874023438 434.4818725585938 220.5247650146484 434.1786499023438 220.0893096923828 L 434.0889892578125 219.9605255126953 L 434.0889892578125 219.8035888671875 L 434.0889892578125 216.1605987548828 L 434.0889892578125 215.6729278564453 L 434.5765075683594 215.6607666015625 C 437.185546875 215.5956573486328 439.2295837402344 213.5000152587891 439.22998046875 210.8898162841797 L 439.2300415039062 210.389892578125 L 439.72998046875 210.389892578125 L 442.8870849609375 210.389892578125 C 442.9822387695312 210.2609558105469 443.0303039550781 210.0771484375 443.0303039550781 209.8411712646484 C 443.0303039550781 209.4508972167969 442.894775390625 209.1749572753906 442.72314453125 208.8255920410156 C 442.6523742675781 208.6814880371094 442.5791931152344 208.5324859619141 442.5111083984375 208.3658447265625 L 442.5050048828125 208.3517150878906 C 442.4984741210938 208.3367156982422 442.4919738769531 208.3215789794922 442.4857177734375 208.3059539794922 C 442.484130859375 208.3022613525391 442.4825439453125 208.2985229492188 442.4810180664062 208.2947082519531 L 442.4801025390625 208.2949676513672 C 442.3296203613281 207.9087677001953 442.2533264160156 207.502685546875 442.2533264160156 207.0880279541016 C 442.2533264160156 205.3257293701172 443.6308898925781 203.8919982910156 445.3241577148438 203.8919982910156 C 447.0170288085938 203.8919982910156 448.394287109375 205.3257293701172 448.394287109375 207.0880279541016 C 448.394287109375 207.5039367675781 448.3177795410156 207.9102783203125 448.1668701171875 208.2957305908203 L 448.1665344238281 208.2956237792969 C 448.16552734375 208.2981109619141 448.1645202636719 208.3005065917969 448.1635437011719 208.3027954101562 C 448.1555480957031 208.3235473632812 448.1470642089844 208.3435668945312 448.1383361816406 208.3636627197266 L 448.1351928710938 208.3709564208984 C 448.0677795410156 208.5348663330078 447.9955749511719 208.6817626953125 447.9257202148438 208.8238677978516 C 447.7536926269531 209.1737518310547 447.6177978515625 209.4501190185547 447.6177978515625 209.8411712646484 C 447.6177978515625 210.0766143798828 447.6658935546875 210.2604217529297 447.7611083984375 210.389892578125 L 454.7563781738281 210.389892578125 L 455.2563781738281 210.389892578125 L 455.2563781738281 210.889892578125 C 455.2563781738281 211.5197906494141 455.2261657714844 212.168701171875 455.1665344238281 212.818603515625 L 455.1341552734375 213.1718444824219 L 454.7900390625 213.2579803466797 L 451.4109497070312 214.1036987304688 C 451.252197265625 214.9462585449219 451.0299072265625 215.7781829833984 450.7480773925781 216.5849151611328 L 453.2528381347656 219.0079803466797 L 453.507568359375 219.25439453125 L 453.3594360351562 219.5763549804688 C 452.8213806152344 220.7456817626953 452.1715698242188 221.8696899414062 451.427978515625 222.9171600341797 L 451.22314453125 223.2057189941406 L 450.8828735351562 223.1084899902344 L 447.5299377441406 222.150390625 C 446.9715576171875 222.7978515625 446.3634338378906 223.4059143066406 445.71630859375 223.9638366699219 L 446.6744689941406 227.3167419433594 L 446.771728515625 227.656982421875 L 446.4831848144531 227.8618316650391 C 445.4357604980469 228.6054382324219 444.3117370605469 229.2553558349609 443.1422729492188 229.7935180664062 L 442.8203430175781 229.9416961669922 L 442.5739135742188 229.6869659423828 L 440.1506958007812 227.18212890625 C 439.344482421875 227.4638061523438 438.5126342773438 227.6860198974609 437.6695861816406 227.8448791503906 L 436.8240661621094 231.2238311767578 L 436.7379760742188 231.5677795410156 L 436.3849182128906 231.6003265380859 C 435.7929077148438 231.6549224853516 435.1897888183594 231.6846313476562 434.5923461914062 231.6886291503906 L 434.0889892578125 231.6920013427734 Z" stroke="none"/>
        <path d="M 445.3241577148438 204.3919982910156 C 443.9038391113281 204.3919982910156 442.7533264160156 205.5989532470703 442.7533264160156 207.0880279541016 C 442.7533264160156 207.4507904052734 442.8226013183594 207.7967529296875 442.9459838867188 208.1134338378906 C 442.945556640625 208.1110534667969 442.9447937011719 208.1084442138672 442.9439697265625 208.1058349609375 C 442.9434814453125 208.1045532226562 442.9430541992188 208.1031951904297 442.9426574707031 208.1017608642578 C 442.9430847167969 208.1030883789062 442.9435424804688 208.1044616699219 442.9439697265625 208.1058349609375 C 442.9451293945312 208.1088409423828 442.9464416503906 208.1115112304688 442.947509765625 208.1140594482422 C 442.9559326171875 208.1359100341797 442.9654235839844 208.1559753417969 442.9739990234375 208.1767883300781 C 443.2024841308594 208.7362060546875 443.5303039550781 209.1479644775391 443.5303039550781 209.8411712646484 C 443.5303039550781 210.4206695556641 443.3006591796875 210.7286987304688 443.0903625488281 210.889892578125 L 439.72998046875 210.889892578125 C 439.7295532226562 213.7578887939453 437.4398498535156 216.0894775390625 434.5889892578125 216.1605987548828 L 434.5889892578125 219.8035888671875 C 434.7423400878906 220.0238342285156 435.0358276367188 220.2645874023438 435.5890808105469 220.2645874023438 C 436.250244140625 220.2645874023438 436.6427917480469 219.9213562011719 437.1756896972656 219.6810150146484 C 437.1954956054688 219.6715850830078 437.2153930664062 219.6628265380859 437.2349548339844 219.6529388427734 C 437.2359619140625 219.6529388427734 437.2362670898438 219.6529388427734 437.2365417480469 219.6526336669922 C 437.5386962890625 219.5225067138672 437.867919921875 219.4497680664062 438.2151184082031 219.4497680664062 C 439.635009765625 219.4497680664062 440.7856140136719 220.6565246582031 440.7856140136719 222.1454467773438 C 440.7856140136719 223.6337127685547 439.635009765625 224.8405303955078 438.2151184082031 224.8405303955078 C 437.867919921875 224.8405303955078 437.5382690429688 224.76806640625 437.2365417480469 224.6373748779297 C 437.2402038574219 224.6392211914062 437.2434692382812 224.6409606933594 437.2466735839844 224.6429290771484 C 437.2426452636719 224.6409606933594 437.2391662597656 224.6392211914062 437.2349548339844 224.6373748779297 C 437.2153930664062 224.6288146972656 437.1954956054688 224.6191253662109 437.1756896972656 224.6097106933594 C 436.6427917480469 224.3695983886719 436.250244140625 224.0261077880859 435.5890808105469 224.0261077880859 C 435.0358276367188 224.0261077880859 434.7423400878906 224.2677459716797 434.5889892578125 224.4872283935547 L 434.5889892578125 231.1886444091797 C 435.1785583496094 231.1846923828125 435.7620544433594 231.1556396484375 436.3390197753906 231.1024475097656 L 437.2631225585938 227.4095764160156 C 438.3064880371094 227.2335968017578 439.3171081542969 226.9617309570312 440.2853088378906 226.6021728515625 L 442.9332580566406 229.3393096923828 C 444.0819091796875 228.8107147216797 445.1729431152344 228.1788482666016 446.1937255859375 227.4541320800781 L 445.1468200683594 223.7906646728516 C 445.9501953125 223.1242523193359 446.690185546875 222.3842468261719 447.3568420410156 221.5809020996094 L 451.020263671875 222.6277313232422 C 451.7448120117188 221.6070709228516 452.3767395019531 220.515869140625 452.9052124023438 219.3673553466797 L 450.1681213378906 216.7195587158203 C 450.5276794433594 215.7511901855469 450.7997131347656 214.7406005859375 450.9756469726562 213.6972198486328 L 454.6686401367188 212.7729339599609 C 454.7255249023438 212.1526489257812 454.7563781738281 211.5250244140625 454.7563781738281 210.889892578125 L 447.5570678710938 210.889892578125 C 447.3480834960938 210.7286987304688 447.1177978515625 210.4206695556641 447.1177978515625 209.8411712646484 C 447.1177978515625 209.1479644775391 447.4451293945312 208.7362060546875 447.6744079589844 208.1767883300781 C 447.683349609375 208.1559753417969 447.6924743652344 208.1359100341797 447.7003173828125 208.1140594482422 C 447.7019348144531 208.1104125976562 447.7039489746094 208.1065521240234 447.7052612304688 208.1017608642578 C 447.7047424316406 208.1056365966797 447.7019348144531 208.1098175048828 447.7012634277344 208.1134338378906 C 447.8252563476562 207.7967529296875 447.894287109375 207.4507904052734 447.894287109375 207.0880279541016 C 447.894287109375 205.5989532470703 446.7434387207031 204.3919982910156 445.3241577148438 204.3919982910156 M 445.3241577148438 203.3919982910156 C 447.292724609375 203.3919982910156 448.894287109375 205.0500183105469 448.894287109375 207.0880279541016 C 448.894287109375 207.5666046142578 448.8061828613281 208.0342712402344 448.6324157714844 208.4780426025391 L 448.6321105957031 208.4779510498047 C 448.6307678222656 208.4812774658203 448.6294250488281 208.4845886230469 448.6280517578125 208.4879150390625 C 448.61572265625 208.5196838378906 448.6044616699219 208.5456085205078 448.596923828125 208.5629272460938 L 448.5959167480469 208.5652770996094 C 448.5226135253906 208.7430419921875 448.4439392089844 208.9030303955078 448.3744201660156 209.0444641113281 C 448.2011108398438 209.3969573974609 448.1177978515625 209.5780792236328 448.1177978515625 209.8411712646484 C 448.1177978515625 209.8584136962891 448.1181640625 209.8746337890625 448.1188354492188 209.889892578125 L 455.7563781738281 209.889892578125 L 455.7563781738281 210.889892578125 C 455.7563781738281 211.5349578857422 455.7254333496094 212.1992340087891 455.6644592285156 212.8642578125 L 455.5996704101562 213.5707702636719 L 451.8398742675781 214.5117645263672 C 451.7042541503906 215.1658477783203 451.5314331054688 215.8126373291016 451.3232421875 216.4456481933594 L 454.1099243164062 219.1414489746094 L 453.8136596679688 219.7853546142578 C 453.2626647949219 220.9828186035156 452.59716796875 222.1338958740234 451.835693359375 223.2065887451172 L 451.4259948730469 223.7837066650391 L 447.6968078613281 222.7180633544922 C 447.2527770996094 223.2145538330078 446.7803039550781 223.6869964599609 446.2840270996094 224.1307220458984 L 447.3497009277344 227.8598480224609 L 446.7726135253906 228.26953125 C 445.6999816894531 229.0310668945312 444.5488891601562 229.6966247558594 443.351318359375 230.2477264404297 L 442.7073974609375 230.5440673828125 L 440.0114135742188 227.7572937011719 C 439.3787841796875 227.9653625488281 438.7319641113281 228.1381225585938 438.0776977539062 228.2738037109375 L 437.136962890625 232.0331115722656 L 436.4308471679688 232.0982208251953 C 435.82470703125 232.1540985107422 435.207275390625 232.1845245361328 434.595703125 232.1886291503906 L 433.5889892578125 232.1953582763672 L 433.5889892578125 224.1724853515625 L 433.7692565917969 223.9144744873047 C 434.1695251464844 223.3415985107422 434.8158264160156 223.0261077880859 435.5890808105469 223.0261077880859 C 436.325927734375 223.0261077880859 436.8354187011719 223.3016815185547 437.2448120117188 223.5231170654297 C 437.3639831542969 223.5875701904297 437.4765319824219 223.6484375 437.5864868164062 223.697998046875 L 437.6337585449219 223.72021484375 L 437.6340026855469 223.7197570800781 C 437.8190307617188 223.7998962402344 438.0145568847656 223.8405303955078 438.2151184082031 223.8405303955078 C 439.0810852050781 223.8405303955078 439.7856140136719 223.0801239013672 439.7856140136719 222.1454467773438 C 439.7856140136719 221.21044921875 439.0810852050781 220.4497680664062 438.2151184082031 220.4497680664062 C 438.08154296875 220.4497680664062 437.9496459960938 220.4679718017578 437.8210754394531 220.5040740966797 L 437.6916809082031 220.6526336669922 L 437.4617004394531 220.6527862548828 C 437.3915405273438 220.6883392333984 437.3197937011719 220.7271575927734 437.2454528808594 220.7673492431641 C 436.8359069824219 220.9888763427734 436.3262329101562 221.2645874023438 435.5890808105469 221.2645874023438 C 434.8143920898438 221.2645874023438 434.1677551269531 220.9486694335938 433.7683410644531 220.375 L 433.5889892578125 220.1174468994141 L 433.5889892578125 215.1852264404297 L 434.5640563964844 215.1609039306641 C 436.8997497558594 215.1026306152344 438.7296142578125 213.2265167236328 438.72998046875 210.8897399902344 L 438.7301330566406 209.889892578125 L 442.5292663574219 209.889892578125 C 442.5299377441406 209.8746490478516 442.5303039550781 209.8584289550781 442.5303039550781 209.8411712646484 C 442.5303039550781 209.5787200927734 442.4472351074219 209.3979187011719 442.2743835449219 209.0460510253906 C 442.203857421875 208.9024505615234 442.1239929199219 208.7398529052734 442.0498657226562 208.5588531494141 L 442.0467224121094 208.5516204833984 C 442.0389709472656 208.5338745117188 442.0313110351562 208.5159759521484 442.0238952636719 208.4976196289062 C 442.0209350585938 208.4906311035156 442.0180053710938 208.4835052490234 442.0151062011719 208.4762268066406 L 442.0142211914062 208.4764862060547 C 441.8410949707031 208.0321807861328 441.7533264160156 207.5650482177734 441.7533264160156 207.0880279541016 C 441.7533264160156 205.0500183105469 443.3551940917969 203.3919982910156 445.3241577148438 203.3919982910156 Z" stroke="none" fill="#fff"/>
      </g>
      <path id="Path_13722" data-name="Path 13722" d="M454.669,18.441l-3.693-.924a16.625,16.625,0,0,0-.807-3.022l2.737-2.648a20.261,20.261,0,0,0-1.885-3.26l-3.663,1.047a16.866,16.866,0,0,0-2.21-2.21l1.047-3.663a20.267,20.267,0,0,0-3.26-1.885l-2.648,2.737a16.641,16.641,0,0,0-3.022-.807L436.339.111q-.865-.08-1.75-.086v6.7a1.136,1.136,0,0,0,1,.461,3.579,3.579,0,0,0,1.587-.583l.059-.028h0a2.453,2.453,0,0,1,.979-.2,2.635,2.635,0,0,1,2.57,2.7,2.635,2.635,0,0,1-2.57,2.7,2.462,2.462,0,0,1-.979-.2l.01.005-.012-.005-.059-.027a3.575,3.575,0,0,0-1.587-.583,1.137,1.137,0,0,0-1,.461v3.643a5.274,5.274,0,0,1,5.141,5.271h3.36a1.231,1.231,0,0,0,.44-1.048,4,4,0,0,0-.556-1.664c-.009-.021-.018-.041-.026-.063v0a2.782,2.782,0,0,1-.194-1.025,2.574,2.574,0,1,1,5.142,0,2.785,2.785,0,0,1-.194,1.025.1.1,0,0,0,0-.01s0,.009,0,.012l-.027.063a3.991,3.991,0,0,0-.556,1.664,1.233,1.233,0,0,0,.44,1.048h7.2c0-.635-.031-1.263-.088-1.883" transform="translate(-405.238 -0.023)" fill="#00254d" stroke="#fff" stroke-width="1"/>
      <path id="Path_13723" data-name="Path 13723" d="M156.074,6.35a2.466,2.466,0,0,0-.977.2l.01,0a.041.041,0,0,0-.011.005c-.021.008-.04.018-.059.027a3.584,3.584,0,0,1-1.588.583,1.139,1.139,0,0,1-1-.46V0l-.133,0c-.635,0-1.263.031-1.884.088l-.924,3.693a16.639,16.639,0,0,0-3.022.808l-2.648-2.737a20.278,20.278,0,0,0-3.26,1.885L141.624,7.4a16.85,16.85,0,0,0-2.21,2.21L135.75,8.563a20.263,20.263,0,0,0-1.885,3.26l2.737,2.648a16.636,16.636,0,0,0-.807,3.022l-3.693.924c-.057.62-.088,1.248-.088,1.883h7.465a1.234,1.234,0,0,1,.439,1.049,4,4,0,0,1-.556,1.664c-.008.02-.018.041-.026.062,0,0,0,.008,0,.012l0-.01a2.8,2.8,0,0,0-.194,1.025,2.574,2.574,0,1,0,5.142,0,2.808,2.808,0,0,0-.194-1.025l0,.01a.05.05,0,0,1-.005-.012c-.008-.021-.017-.042-.026-.062a3.984,3.984,0,0,1-.557-1.664,1.238,1.238,0,0,1,.439-1.049h3.095a5.275,5.275,0,0,1,5.275-5.275c.045,0,.089,0,.133,0V11.387a1.138,1.138,0,0,1,1-.461,3.578,3.578,0,0,1,1.588.583l.059.028.011.005-.01-.005a2.443,2.443,0,0,0,.977.2,2.636,2.636,0,0,0,2.572-2.7,2.636,2.636,0,0,0-2.572-2.7" transform="translate(-123.098)" fill="#00254d" stroke="#fff" stroke-width="1"/>
      <path id="Path_13724" data-name="Path 13724" d="M24.06,404.936a2.453,2.453,0,0,0-.977.2l.01-.005-.011.005-.059.028a3.582,3.582,0,0,1-1.588.584,1.137,1.137,0,0,1-1-.461v-3.643c-.044,0-.088,0-.133,0a5.275,5.275,0,0,1-5.275-5.274H11.933a1.233,1.233,0,0,0-.44,1.048,4,4,0,0,0,.556,1.664l.027.062s0,.008,0,.012,0-.007,0-.012a2.8,2.8,0,0,1,.194,1.026,2.636,2.636,0,0,1-2.571,2.7,2.635,2.635,0,0,1-2.571-2.7,2.8,2.8,0,0,1,.193-1.026h0c.008-.021.017-.042.026-.063a3.983,3.983,0,0,0,.557-1.664,1.231,1.231,0,0,0-.44-1.048H0c0,.635.031,1.263.088,1.883l3.693.924a16.639,16.639,0,0,0,.807,3.022l-2.737,2.648a20.282,20.282,0,0,0,1.885,3.26L7.4,407.067a16.864,16.864,0,0,0,2.21,2.21L8.563,412.94a20.254,20.254,0,0,0,3.26,1.885l2.648-2.737a16.62,16.62,0,0,0,3.022.807l.924,3.693c.62.057,1.248.088,1.884.088l.133,0v-6.7a1.137,1.137,0,0,1,1-.461,3.587,3.587,0,0,1,1.588.583l.059.028.011.005-.01,0a2.46,2.46,0,0,0,.977.2,2.7,2.7,0,0,0,0-5.391" transform="translate(0 -369.606)" fill="#00254d" stroke="#fff" stroke-width="1"/>
    </g>
  </g>
</svg>
