<svg id="Group_11123" data-name="Group 11123" xmlns="http://www.w3.org/2000/svg" xmlns:xlink="http://www.w3.org/1999/xlink" width="47.071" height="47.071" viewBox="0 0 47.071 47.071">
  <defs>
    <clipPath id="clip-path">
      <rect id="Rectangle_2944" data-name="Rectangle 2944" width="47.071" height="47.071" fill="#00254d"/>
    </clipPath>
  </defs>
  <g id="Group_11122" data-name="Group 11122" clip-path="url(#clip-path)">
    <path id="Path_13751" data-name="Path 13751" d="M137.964,23.864A23.535,23.535,0,0,1,144.4,55.846a7.056,7.056,0,0,0-2.062-1.073,22.032,22.032,0,0,0-.7-14.364,5.574,5.574,0,0,0-5.539-9.144,17.36,17.36,0,0,0-12.61-1.734,5.512,5.512,0,0,0-.906-2.392,20.8,20.8,0,0,1,14.153-.216,6.177,6.177,0,0,1,1.231-3.058" transform="translate(-101.017 -19.666)" fill="#00254d"/>
    <path id="Path_13752" data-name="Path 13752" d="M90.829,136.734a6.178,6.178,0,0,1,3.058,1.231A23.535,23.535,0,0,1,61.9,144.4a7.056,7.056,0,0,0,1.073-2.062,22.032,22.032,0,0,0,14.364-.7,5.574,5.574,0,0,0,9.145-5.539,17.36,17.36,0,0,0,1.734-12.61,5.512,5.512,0,0,0,2.392-.906,20.8,20.8,0,0,1,.216,14.153" transform="translate(-51.014 -101.017)" fill="#00254d"/>
    <path id="Path_13753" data-name="Path 13753" d="M185.9,70.388a4.606,4.606,0,1,1-4.606,4.606,4.606,4.606,0,0,1,4.606-4.606" transform="translate(-149.397 -58.005)" fill="#00254d"/>
    <path id="Path_13754" data-name="Path 13754" d="M55.846,3.687a7.059,7.059,0,0,0-1.073,2.062,22.033,22.033,0,0,0-14.364.7,5.574,5.574,0,0,0-9.144,5.539A17.36,17.36,0,0,0,29.53,24.6a5.512,5.512,0,0,0-2.392.906,20.8,20.8,0,0,1-.216-14.153,6.177,6.177,0,0,1-3.058-1.231A23.535,23.535,0,0,1,55.846,3.687" transform="translate(-19.666 0.001)" fill="#00254d"/>
    <path id="Path_13755" data-name="Path 13755" d="M149.421,181.288a4.606,4.606,0,1,1-4.606,4.606,4.606,4.606,0,0,1,4.606-4.606" transform="translate(-119.339 -149.396)" fill="#00254d"/>
    <path id="Path_13756" data-name="Path 13756" d="M24.6,88.22a5.513,5.513,0,0,0,.906,2.392,20.8,20.8,0,0,1-14.153.216,6.179,6.179,0,0,1-1.231,3.058A23.535,23.535,0,0,1,3.688,61.9,7.052,7.052,0,0,0,5.75,62.976a22.032,22.032,0,0,0,.7,14.364,5.575,5.575,0,0,0,5.539,9.145A17.36,17.36,0,0,0,24.6,88.22" transform="translate(0 -51.013)" fill="#00254d"/>
    <path id="Path_13757" data-name="Path 13757" d="M74.994,33.914a4.606,4.606,0,1,1-4.606,4.606,4.606,4.606,0,0,1,4.606-4.606" transform="translate(-58.005 -27.948)" fill="#00254d"/>
    <path id="Path_13758" data-name="Path 13758" d="M38.521,144.815a4.606,4.606,0,1,1-4.606,4.606,4.606,4.606,0,0,1,4.606-4.606" transform="translate(-27.949 -119.339)" fill="#00254d"/>
  </g>
</svg>
