<svg xmlns="http://www.w3.org/2000/svg" xmlns:xlink="http://www.w3.org/1999/xlink" width="49" height="49" viewBox="0 0 49 49">
  <defs>
    <clipPath id="clip-path">
      <rect id="Rectangle_2945" data-name="Rectangle 2945" width="49" height="49" transform="translate(-0.104 -0.104)" fill="#00254d"/>
    </clipPath>
  </defs>
  <g id="Group_11125" data-name="Group 11125" transform="translate(0.104 -0.133)">
    <g id="Group_11124" data-name="Group 11124" transform="translate(0 0.237)" clip-path="url(#clip-path)">
      <path id="Path_13759" data-name="Path 13759" d="M24.507,0A24.507,24.507,0,1,0,49.015,24.507,24.532,24.532,0,0,0,24.507,0Zm0,3.254A21.253,21.253,0,1,1,3.254,24.507,21.229,21.229,0,0,1,24.507,3.254" transform="translate(0 -0.118)" fill="#00254d"/>
      <path id="Path_13760" data-name="Path 13760" d="M213.623,508.726c-.555-.54-1.413-.186-2.026.053a13.189,13.189,0,0,0-2.518,1.583c-1.535.876-3.382.581-5.07.782a4.461,4.461,0,0,1-3.815-1.6,7.832,7.832,0,0,1,3.852.293,2.555,2.555,0,0,0,2.748-1.014A1.409,1.409,0,0,0,205.652,507c-2.033-.558-4.25-.475-6.152-1.489-2.075-.945-4.338-2.022-6.668-1.511a16.9,16.9,0,0,0-7.215,4.732c-.423.4-.736.655-.561.935l2.953,3.994c.358.413,1.288-.456,1.8-.816a4.853,4.853,0,0,1,5.756-.138c1.861.926,4.758,2.032,5.562,1.925,2.377-.388,5.679.04,7.468-.964s6.388-3.223,5.027-4.942Z" transform="translate(-174.932 -476.546)" fill="#00254d"/>
      <path id="Path_13761" data-name="Path 13761" d="M395.629,198.375a3.509,3.509,0,0,0-3.872,3.418c0,.007-.021,1.469-.021,1.469a.526.526,0,0,0-.075.037.635.635,0,0,0-.217.289,2.029,2.029,0,0,0-.1.757,4.309,4.309,0,0,0,8.559,0,2.03,2.03,0,0,0-.1-.757.634.634,0,0,0-.217-.289.522.522,0,0,0-.075-.037,6.327,6.327,0,0,0-.021-1.454,2.138,2.138,0,0,0-.662-1.454,1.814,1.814,0,0,0-1.235-1.559,5.16,5.16,0,0,0-1.972-.419Z" transform="translate(-370.035 -187.69)" fill="#00254d"/>
      <path id="Path_13762" data-name="Path 13762" d="M304.664,387.429a32.425,32.425,0,0,0-3.792,1.718,4.707,4.707,0,0,0-1.733,2.122,7.994,7.994,0,0,0-.654,2.328,7.881,7.881,0,0,1,2.719-.665,11.906,11.906,0,0,1,5.124,1.347,14.556,14.556,0,0,0,5.149,1.471,18.106,18.106,0,0,0,5.54-1.144.322.322,0,0,0,.184-.286,7.654,7.654,0,0,0-.7-3.052,4.708,4.708,0,0,0-1.733-2.122,32.43,32.43,0,0,0-3.792-1.718c-.569,2.2-1.132,5.989-3.159,5.989s-2.588-3.793-3.157-5.989Z" transform="translate(-282.229 -366.448)" fill="#00254d"/>
    </g>
  </g>
</svg>
